{
	"asset":{
		"generator":"Khronos glTF Blender I/O v3.5.30",
		"version":"2.0"
	},
	"scene":0,
	"scenes":[
		{
			"name":"Scene",
			"nodes":[
				0,
				1,
				2,
				3,
				4,
				5,
				6
			]
		}
	],
	"nodes":[
		{
			"mesh":0,
			"name":"Sph\u00e8re.001",
			"rotation":[
				-0.007646959275007248,
				0,
				0,
				0.9999707937240601
			],
			"scale":[
				10.547930717468262,
				12.390279769897461,
				16.565662384033203
			],
			"translation":[
				0.30320653319358826,
				6.902088165283203,
				-4.745049476623535
			]
		},
		{
			"mesh":1,
			"name":"Sph\u00e8re.003",
			"rotation":[
				0.9999707341194153,
				0,
				0,
				0.007654160261154175
			],
			"scale":[
				13.762287139892578,
				19.999996185302734,
				19.999996185302734
			],
			"translation":[
				-0.188073992729187,
				2.9740943908691406,
				-4.484101295471191
			]
		},
		{
			"mesh":2,
			"name":"Sph\u00e8re",
			"scale":[
				10,
				10,
				10
			],
			"translation":[
				-0.188073992729187,
				14.248394012451172,
				3.371893882751465
			]
		},
		{
			"mesh":3,
			"name":"Sph\u00e8re.002",
			"rotation":[
				0,
				0.025266215205192566,
				0,
				0.999680757522583
			],
			"scale":[
				10,
				10,
				10
			],
			"translation":[
				-0.188073992729187,
				14.494033813476562,
				-12.34908390045166
			]
		},
		{
			"mesh":4,
			"name":"Icosph\u00e8re",
			"rotation":[
				-0.648536741733551,
				-0.717871367931366,
				-0.25309428572654724,
				0.0020423750393092632
			],
			"scale":[
				3.5661027431488037,
				3.566102981567383,
				3.566102981567383
			],
			"translation":[
				11.18046760559082,
				13.128158569335938,
				-4.774323463439941
			]
		},
		{
			"mesh":5,
			"name":"oeil_gauche",
			"rotation":[
				0.9159693121910095,
				-0.18096472322940826,
				0.05500888451933861,
				0.3538728654384613
			],
			"scale":[
				0.9768897891044617,
				0.8096696138381958,
				0.7195717096328735
			],
			"translation":[
				9.396333694458008,
				2.431346893310547,
				-0.1704416275024414
			]
		},
		{
			"mesh":6,
			"name":"oeilDroit",
			"rotation":[
				0.006993084214627743,
				-0.3161005675792694,
				0.9470012784004211,
				0.05674641951918602
			],
			"scale":[
				0.9768897891044617,
				0.8096696138381958,
				0.7195717096328735
			],
			"translation":[
				9.385010719299316,
				2.2832870483398438,
				-10.108765602111816
			]
		}
	],
	"animations":[
		{
			"channels":[
				{
					"sampler":0,
					"target":{
						"node":0,
						"path":"translation"
					}
				},
				{
					"sampler":1,
					"target":{
						"node":0,
						"path":"rotation"
					}
				},
				{
					"sampler":2,
					"target":{
						"node":0,
						"path":"scale"
					}
				}
			],
			"name":"Sph\u00e8re.001",
			"samplers":[
				{
					"input":27,
					"interpolation":"LINEAR",
					"output":28
				},
				{
					"input":27,
					"interpolation":"LINEAR",
					"output":29
				},
				{
					"input":27,
					"interpolation":"LINEAR",
					"output":30
				}
			]
		},
		{
			"channels":[
				{
					"sampler":0,
					"target":{
						"node":1,
						"path":"translation"
					}
				},
				{
					"sampler":1,
					"target":{
						"node":1,
						"path":"rotation"
					}
				},
				{
					"sampler":2,
					"target":{
						"node":1,
						"path":"scale"
					}
				}
			],
			"name":"Sph\u00e8re.003",
			"samplers":[
				{
					"input":27,
					"interpolation":"LINEAR",
					"output":31
				},
				{
					"input":27,
					"interpolation":"LINEAR",
					"output":32
				},
				{
					"input":27,
					"interpolation":"LINEAR",
					"output":33
				}
			]
		},
		{
			"channels":[
				{
					"sampler":0,
					"target":{
						"node":2,
						"path":"translation"
					}
				},
				{
					"sampler":1,
					"target":{
						"node":2,
						"path":"rotation"
					}
				},
				{
					"sampler":2,
					"target":{
						"node":2,
						"path":"scale"
					}
				}
			],
			"name":"Sph\u00e8re",
			"samplers":[
				{
					"input":27,
					"interpolation":"LINEAR",
					"output":34
				},
				{
					"input":27,
					"interpolation":"LINEAR",
					"output":35
				},
				{
					"input":27,
					"interpolation":"LINEAR",
					"output":36
				}
			]
		},
		{
			"channels":[
				{
					"sampler":0,
					"target":{
						"node":3,
						"path":"translation"
					}
				},
				{
					"sampler":1,
					"target":{
						"node":3,
						"path":"rotation"
					}
				},
				{
					"sampler":2,
					"target":{
						"node":3,
						"path":"scale"
					}
				}
			],
			"name":"Sph\u00e8re.002",
			"samplers":[
				{
					"input":27,
					"interpolation":"LINEAR",
					"output":37
				},
				{
					"input":27,
					"interpolation":"LINEAR",
					"output":38
				},
				{
					"input":27,
					"interpolation":"LINEAR",
					"output":39
				}
			]
		},
		{
			"channels":[
				{
					"sampler":0,
					"target":{
						"node":4,
						"path":"translation"
					}
				},
				{
					"sampler":1,
					"target":{
						"node":4,
						"path":"rotation"
					}
				},
				{
					"sampler":2,
					"target":{
						"node":4,
						"path":"scale"
					}
				}
			],
			"name":"Icosph\u00e8re",
			"samplers":[
				{
					"input":27,
					"interpolation":"LINEAR",
					"output":40
				},
				{
					"input":27,
					"interpolation":"LINEAR",
					"output":41
				},
				{
					"input":27,
					"interpolation":"LINEAR",
					"output":42
				}
			]
		},
		{
			"channels":[
				{
					"sampler":0,
					"target":{
						"node":5,
						"path":"translation"
					}
				},
				{
					"sampler":1,
					"target":{
						"node":5,
						"path":"rotation"
					}
				},
				{
					"sampler":2,
					"target":{
						"node":5,
						"path":"scale"
					}
				}
			],
			"name":"oeil_gauche",
			"samplers":[
				{
					"input":27,
					"interpolation":"LINEAR",
					"output":43
				},
				{
					"input":27,
					"interpolation":"LINEAR",
					"output":44
				},
				{
					"input":27,
					"interpolation":"LINEAR",
					"output":45
				}
			]
		},
		{
			"channels":[
				{
					"sampler":0,
					"target":{
						"node":6,
						"path":"translation"
					}
				},
				{
					"sampler":1,
					"target":{
						"node":6,
						"path":"rotation"
					}
				},
				{
					"sampler":2,
					"target":{
						"node":6,
						"path":"scale"
					}
				}
			],
			"name":"oeilDroit",
			"samplers":[
				{
					"input":27,
					"interpolation":"LINEAR",
					"output":46
				},
				{
					"input":27,
					"interpolation":"LINEAR",
					"output":47
				},
				{
					"input":27,
					"interpolation":"LINEAR",
					"output":48
				}
			]
		}
	],
	"meshes":[
		{
			"name":"Sph\u00e8re.001",
			"primitives":[
				{
					"attributes":{
						"POSITION":0,
						"TEXCOORD_0":1,
						"NORMAL":2
					},
					"indices":3
				}
			]
		},
		{
			"name":"Sph\u00e8re.004",
			"primitives":[
				{
					"attributes":{
						"POSITION":4,
						"TEXCOORD_0":5,
						"NORMAL":6
					},
					"indices":7
				}
			]
		},
		{
			"name":"Sph\u00e8re.007",
			"primitives":[
				{
					"attributes":{
						"POSITION":8,
						"TEXCOORD_0":9,
						"NORMAL":10
					},
					"indices":11
				}
			]
		},
		{
			"name":"Sph\u00e8re.009",
			"primitives":[
				{
					"attributes":{
						"POSITION":12,
						"TEXCOORD_0":13,
						"NORMAL":14
					},
					"indices":11
				}
			]
		},
		{
			"name":"Icosph\u00e8re",
			"primitives":[
				{
					"attributes":{
						"POSITION":15,
						"TEXCOORD_0":16,
						"NORMAL":17
					},
					"indices":18
				}
			]
		},
		{
			"name":"Plan",
			"primitives":[
				{
					"attributes":{
						"POSITION":19,
						"TEXCOORD_0":20,
						"NORMAL":21
					},
					"indices":22
				}
			]
		},
		{
			"name":"Plan.001",
			"primitives":[
				{
					"attributes":{
						"POSITION":23,
						"TEXCOORD_0":24,
						"NORMAL":25
					},
					"indices":26
				}
			]
		}
	],
	"accessors":[
		{
			"bufferView":0,
			"componentType":5126,
			"count":438,
			"max":[
				0.9903924465179443,
				-0.09754516184329987,
				0.9903921484947205
			],
			"min":[
				-0.9903919696807861,
				-1,
				-0.9903926253318787
			],
			"type":"VEC3"
		},
		{
			"bufferView":1,
			"componentType":5126,
			"count":438,
			"type":"VEC2"
		},
		{
			"bufferView":2,
			"componentType":5126,
			"count":438,
			"type":"VEC3"
		},
		{
			"bufferView":3,
			"componentType":5123,
			"count":1974,
			"type":"SCALAR"
		},
		{
			"bufferView":4,
			"componentType":5126,
			"count":1724,
			"max":[
				0.9948859810829163,
				-0.008757730945944786,
				0.990537703037262
			],
			"min":[
				-1.015453577041626,
				-1.1808773279190063,
				-0.9892287850379944
			],
			"type":"VEC3"
		},
		{
			"bufferView":5,
			"componentType":5126,
			"count":1724,
			"type":"VEC2"
		},
		{
			"bufferView":6,
			"componentType":5126,
			"count":1724,
			"type":"VEC3"
		},
		{
			"bufferView":7,
			"componentType":5123,
			"count":5022,
			"type":"SCALAR"
		},
		{
			"bufferView":8,
			"componentType":5126,
			"count":597,
			"max":[
				0.9999997019767761,
				1,
				0.9999993443489075
			],
			"min":[
				-0.9999990463256836,
				-1,
				-1
			],
			"type":"VEC3"
		},
		{
			"bufferView":9,
			"componentType":5126,
			"count":597,
			"type":"VEC2"
		},
		{
			"bufferView":10,
			"componentType":5126,
			"count":597,
			"type":"VEC3"
		},
		{
			"bufferView":11,
			"componentType":5123,
			"count":2880,
			"type":"SCALAR"
		},
		{
			"bufferView":12,
			"componentType":5126,
			"count":597,
			"max":[
				0.9999997019767761,
				1,
				0.9999993443489075
			],
			"min":[
				-0.9999990463256836,
				-1,
				-1
			],
			"type":"VEC3"
		},
		{
			"bufferView":13,
			"componentType":5126,
			"count":597,
			"type":"VEC2"
		},
		{
			"bufferView":14,
			"componentType":5126,
			"count":597,
			"type":"VEC3"
		},
		{
			"bufferView":15,
			"componentType":5126,
			"count":72,
			"max":[
				0.9510578513145447,
				1,
				0.9999999403953552
			],
			"min":[
				-0.9510578513145447,
				-1,
				-0.9999999403953552
			],
			"type":"VEC3"
		},
		{
			"bufferView":16,
			"componentType":5126,
			"count":72,
			"type":"VEC2"
		},
		{
			"bufferView":17,
			"componentType":5126,
			"count":72,
			"type":"VEC3"
		},
		{
			"bufferView":18,
			"componentType":5123,
			"count":240,
			"type":"SCALAR"
		},
		{
			"bufferView":19,
			"componentType":5126,
			"count":158,
			"max":[
				0.9503402709960938,
				2.747486114501953,
				4.2178192138671875
			],
			"min":[
				-0.929469108581543,
				-2.4821739196777344,
				-4.779876708984375
			],
			"type":"VEC3"
		},
		{
			"bufferView":20,
			"componentType":5126,
			"count":158,
			"type":"VEC2"
		},
		{
			"bufferView":21,
			"componentType":5126,
			"count":158,
			"type":"VEC3"
		},
		{
			"bufferView":22,
			"componentType":5123,
			"count":432,
			"type":"SCALAR"
		},
		{
			"bufferView":23,
			"componentType":5126,
			"count":158,
			"max":[
				0.9503402709960938,
				2.747486114501953,
				4.2178192138671875
			],
			"min":[
				-0.929469108581543,
				-2.4821739196777344,
				-4.779876708984375
			],
			"type":"VEC3"
		},
		{
			"bufferView":24,
			"componentType":5126,
			"count":158,
			"type":"VEC2"
		},
		{
			"bufferView":25,
			"componentType":5126,
			"count":158,
			"type":"VEC3"
		},
		{
			"bufferView":26,
			"componentType":5123,
			"count":432,
			"type":"SCALAR"
		},
		{
			"bufferView":27,
			"componentType":5126,
			"count":20,
			"max":[
				0.7916666666666666
			],
			"min":[
				0
			],
			"type":"SCALAR"
		},
		{
			"bufferView":28,
			"componentType":5126,
			"count":20,
			"type":"VEC3"
		},
		{
			"bufferView":29,
			"componentType":5126,
			"count":20,
			"type":"VEC4"
		},
		{
			"bufferView":30,
			"componentType":5126,
			"count":20,
			"type":"VEC3"
		},
		{
			"bufferView":31,
			"componentType":5126,
			"count":20,
			"type":"VEC3"
		},
		{
			"bufferView":32,
			"componentType":5126,
			"count":20,
			"type":"VEC4"
		},
		{
			"bufferView":33,
			"componentType":5126,
			"count":20,
			"type":"VEC3"
		},
		{
			"bufferView":34,
			"componentType":5126,
			"count":20,
			"type":"VEC3"
		},
		{
			"bufferView":35,
			"componentType":5126,
			"count":20,
			"type":"VEC4"
		},
		{
			"bufferView":36,
			"componentType":5126,
			"count":20,
			"type":"VEC3"
		},
		{
			"bufferView":37,
			"componentType":5126,
			"count":20,
			"type":"VEC3"
		},
		{
			"bufferView":38,
			"componentType":5126,
			"count":20,
			"type":"VEC4"
		},
		{
			"bufferView":39,
			"componentType":5126,
			"count":20,
			"type":"VEC3"
		},
		{
			"bufferView":40,
			"componentType":5126,
			"count":20,
			"type":"VEC3"
		},
		{
			"bufferView":41,
			"componentType":5126,
			"count":20,
			"type":"VEC4"
		},
		{
			"bufferView":42,
			"componentType":5126,
			"count":20,
			"type":"VEC3"
		},
		{
			"bufferView":43,
			"componentType":5126,
			"count":20,
			"type":"VEC3"
		},
		{
			"bufferView":44,
			"componentType":5126,
			"count":20,
			"type":"VEC4"
		},
		{
			"bufferView":45,
			"componentType":5126,
			"count":20,
			"type":"VEC3"
		},
		{
			"bufferView":46,
			"componentType":5126,
			"count":20,
			"type":"VEC3"
		},
		{
			"bufferView":47,
			"componentType":5126,
			"count":20,
			"type":"VEC4"
		},
		{
			"bufferView":48,
			"componentType":5126,
			"count":20,
			"type":"VEC3"
		}
	],
	"bufferViews":[
		{
			"buffer":0,
			"byteLength":5256,
			"byteOffset":0,
			"target":34962
		},
		{
			"buffer":0,
			"byteLength":3504,
			"byteOffset":5256,
			"target":34962
		},
		{
			"buffer":0,
			"byteLength":5256,
			"byteOffset":8760,
			"target":34962
		},
		{
			"buffer":0,
			"byteLength":3948,
			"byteOffset":14016,
			"target":34963
		},
		{
			"buffer":0,
			"byteLength":20688,
			"byteOffset":17964,
			"target":34962
		},
		{
			"buffer":0,
			"byteLength":13792,
			"byteOffset":38652,
			"target":34962
		},
		{
			"buffer":0,
			"byteLength":20688,
			"byteOffset":52444,
			"target":34962
		},
		{
			"buffer":0,
			"byteLength":10044,
			"byteOffset":73132,
			"target":34963
		},
		{
			"buffer":0,
			"byteLength":7164,
			"byteOffset":83176,
			"target":34962
		},
		{
			"buffer":0,
			"byteLength":4776,
			"byteOffset":90340,
			"target":34962
		},
		{
			"buffer":0,
			"byteLength":7164,
			"byteOffset":95116,
			"target":34962
		},
		{
			"buffer":0,
			"byteLength":5760,
			"byteOffset":102280,
			"target":34963
		},
		{
			"buffer":0,
			"byteLength":7164,
			"byteOffset":108040,
			"target":34962
		},
		{
			"buffer":0,
			"byteLength":4776,
			"byteOffset":115204,
			"target":34962
		},
		{
			"buffer":0,
			"byteLength":7164,
			"byteOffset":119980,
			"target":34962
		},
		{
			"buffer":0,
			"byteLength":864,
			"byteOffset":127144,
			"target":34962
		},
		{
			"buffer":0,
			"byteLength":576,
			"byteOffset":128008,
			"target":34962
		},
		{
			"buffer":0,
			"byteLength":864,
			"byteOffset":128584,
			"target":34962
		},
		{
			"buffer":0,
			"byteLength":480,
			"byteOffset":129448,
			"target":34963
		},
		{
			"buffer":0,
			"byteLength":1896,
			"byteOffset":129928,
			"target":34962
		},
		{
			"buffer":0,
			"byteLength":1264,
			"byteOffset":131824,
			"target":34962
		},
		{
			"buffer":0,
			"byteLength":1896,
			"byteOffset":133088,
			"target":34962
		},
		{
			"buffer":0,
			"byteLength":864,
			"byteOffset":134984,
			"target":34963
		},
		{
			"buffer":0,
			"byteLength":1896,
			"byteOffset":135848,
			"target":34962
		},
		{
			"buffer":0,
			"byteLength":1264,
			"byteOffset":137744,
			"target":34962
		},
		{
			"buffer":0,
			"byteLength":1896,
			"byteOffset":139008,
			"target":34962
		},
		{
			"buffer":0,
			"byteLength":864,
			"byteOffset":140904,
			"target":34963
		},
		{
			"buffer":0,
			"byteLength":80,
			"byteOffset":141768
		},
		{
			"buffer":0,
			"byteLength":240,
			"byteOffset":141848
		},
		{
			"buffer":0,
			"byteLength":320,
			"byteOffset":142088
		},
		{
			"buffer":0,
			"byteLength":240,
			"byteOffset":142408
		},
		{
			"buffer":0,
			"byteLength":240,
			"byteOffset":142648
		},
		{
			"buffer":0,
			"byteLength":320,
			"byteOffset":142888
		},
		{
			"buffer":0,
			"byteLength":240,
			"byteOffset":143208
		},
		{
			"buffer":0,
			"byteLength":240,
			"byteOffset":143448
		},
		{
			"buffer":0,
			"byteLength":320,
			"byteOffset":143688
		},
		{
			"buffer":0,
			"byteLength":240,
			"byteOffset":144008
		},
		{
			"buffer":0,
			"byteLength":240,
			"byteOffset":144248
		},
		{
			"buffer":0,
			"byteLength":320,
			"byteOffset":144488
		},
		{
			"buffer":0,
			"byteLength":240,
			"byteOffset":144808
		},
		{
			"buffer":0,
			"byteLength":240,
			"byteOffset":145048
		},
		{
			"buffer":0,
			"byteLength":320,
			"byteOffset":145288
		},
		{
			"buffer":0,
			"byteLength":240,
			"byteOffset":145608
		},
		{
			"buffer":0,
			"byteLength":240,
			"byteOffset":145848
		},
		{
			"buffer":0,
			"byteLength":320,
			"byteOffset":146088
		},
		{
			"buffer":0,
			"byteLength":240,
			"byteOffset":146408
		},
		{
			"buffer":0,
			"byteLength":240,
			"byteOffset":146648
		},
		{
			"buffer":0,
			"byteLength":320,
			"byteOffset":146888
		},
		{
			"buffer":0,
			"byteLength":240,
			"byteOffset":147208
		}
	],
	"buffers":[
		{
			"byteLength":147448,
			"uri":"data:application/octet-stream;base64,"
		}
	]
}
